# xmcd
#
# Track frame offsets: 
#        150
#        9424
#        18493
#        36409
#        52305
#        73829
#        90561
#        113367
#        130823
#        150843
#        167686
#        199590
#
# Disc length: 3006 seconds
#
# Revision: 0
# Processed by: cddbd v1.5.2PL0 Copyright (c) Steve Scherf et al.
# Submitted via: ExactAudioCopy v1.0b4
#
DISCID=930bbc0c
DTITLE=Blues Band,  The - Live - Bye Bye Blues (LP)
DYEAR=1900
DGENRE=Blues
TTITLE0=On In
TTITLE1=Hey, Hey, Little Girl
TTITLE2=Death Letter
TTITLE3=Grits Ain' t Groceries
TTITLE4=Flat Foot Sam
TTITLE5=Don' t Lie To Me
TTITLE6=Can' t Hold On
TTITLE7=It Might As Well Be Me
TTITLE8=Nadine
TTITLE9=Big Boss Man
TTITLE10=Maggies Farm
TTITLE11=Treat Her Right
EXTD=
EXTT0=
EXTT1=
EXTT2=
EXTT3=
EXTT4=
EXTT5=
EXTT6=
EXTT7=
EXTT8=
EXTT9=
EXTT10=
EXTT11=
PLAYORDER=
